<svg width="36" height="24" viewBox="0 0 36 24" fill="none" xmlns="http://www.w3.org/2000/svg">
<path d="M2.0165 24C1.52583 24 1.09917 23.8187 0.7365 23.456C0.395167 23.0933 0.2245 22.6667 0.2245 22.176V2.464C0.2245 1.97333 0.395167 1.54667 0.7365 1.184C1.09917 0.821332 1.52583 0.639999 2.0165 0.639999H4.3845C4.87517 0.639999 5.29117 0.821332 5.6325 1.184C5.99517 1.54667 6.1765 1.97333 6.1765 2.464V22.176C6.1765 22.6667 5.99517 23.0933 5.6325 23.456C5.29117 23.8187 4.87517 24 4.3845 24H2.0165ZM12.3578 18.976L18.8218 11.072V11.008C18.8218 10.9867 18.8111 10.976 18.7898 10.976H13.0298C12.5391 10.976 12.1124 10.8053 11.7498 10.464C11.3871 10.1013 11.2057 9.67467 11.2057 9.184C11.2057 8.69333 11.3871 8.26667 11.7498 7.904C12.1124 7.54133 12.5391 7.36 13.0298 7.36H23.4618C23.9524 7.36 24.3791 7.54133 24.7418 7.904C25.1044 8.26667 25.2858 8.69333 25.2858 9.184C25.2858 10.3787 24.9018 11.4453 24.1338 12.384L17.6698 20.288V20.352C17.6698 20.3733 17.6804 20.384 17.7018 20.384H23.4618C23.9524 20.384 24.3791 20.5653 24.7418 20.928C25.1044 21.2693 25.2858 21.6853 25.2858 22.176C25.2858 22.6667 25.1044 23.0933 24.7418 23.456C24.3791 23.8187 23.9524 24 23.4618 24H13.0298C12.5391 24 12.1124 23.8187 11.7498 23.456C11.3871 23.0933 11.2057 22.6667 11.2057 22.176C11.2057 20.9813 11.5898 19.9147 12.3578 18.976ZM31.6698 24C31.1791 24 30.7524 23.8187 30.3898 23.456C30.0271 23.0933 29.8458 22.6667 29.8458 22.176V19.744C29.8458 19.2533 30.0271 18.8267 30.3898 18.464C30.7524 18.1013 31.1791 17.92 31.6698 17.92H34.1018C34.5924 17.92 35.0191 18.1013 35.3818 18.464C35.7444 18.8267 35.9258 19.2533 35.9258 19.744V22.176C35.9258 22.6667 35.7444 23.0933 35.3818 23.456C35.0191 23.8187 34.5924 24 34.1018 24H31.6698Z" fill="white"/>
</svg>
